# xmcd CD database file
#
# Track frame offsets:
#	150
#	15877
#	27307
#
# Disc length: 587 seconds
#
# Revision: 0
# Processed by: cddbd v1.5.1PL2 Copyright (c) Steve Scherf et al.
# Submitted via: CDex 1.51
#
DISCID=13024903
DTITLE=CRAZE - baby punks 2000
DYEAR=2000
DGENRE=Rock
TTITLE0=baby punks 2000
TTITLE1=武者ぶるい
TTITLE2=汚れ者RHAPSODY
EXTD=YEAR: 2000
EXTT0=
EXTT1=
EXTT2=
PLAYORDER=
